<svg width="86" height="92" viewBox="0 0 86 92" fill="none" xmlns="http://www.w3.org/2000/svg">
<path fill-rule="evenodd" clip-rule="evenodd" d="M75.5 26C78.2736 26 80.9404 27.0922 82.9121 29.0469C84.885 31.0029 86 33.6632 86 36.4443V81.5557C86 84.3368 84.885 86.9971 82.9121 88.9531C80.9404 90.9078 78.2736 92 75.5 92H10.5C7.72636 92 5.05959 90.9078 3.08789 88.9531C1.11504 86.9971 2.85389e-05 84.3368 0 81.5557V36.4443C2.90489e-05 33.6632 1.11504 31.0029 3.08789 29.0469C5.05959 27.0922 7.72636 26 10.5 26C12.7091 26 14.5 27.7909 14.5 30C14.5 32.2091 12.7091 34 10.5 34C9.82593 34 9.18598 34.2662 8.71973 34.7285C8.37888 35.0666 8.15108 35.489 8.05371 35.9414L43 60.1348L77.9453 35.9414C77.8479 35.4891 77.6211 35.0665 77.2803 34.7285C76.814 34.2662 76.1741 34 75.5 34C73.2909 34 71.5 32.2091 71.5 30C71.5 27.7909 73.2909 26 75.5 26ZM45.2764 68.2891C43.9068 69.2369 42.0932 69.2369 40.7236 68.2891L8 45.6338V81.5557C8.00003 82.1926 8.25491 82.8104 8.71973 83.2715C9.18598 83.7338 9.82593 84 10.5 84H75.5C76.1741 84 76.814 83.7338 77.2803 83.2715C77.7451 82.8104 78 82.1926 78 81.5557V45.6338L45.2764 68.2891Z" fill="#2B308B"/>
<path d="M43 0C45.2091 0 47 1.79086 47 4V33.2354L56.1494 23.9434C57.6993 22.3692 60.2325 22.3495 61.8066 23.8994C63.3808 25.4493 63.4005 27.9825 61.8506 29.5566L45.8506 45.8066C45.0987 46.5702 44.0716 47 43 47C41.9284 47 40.9013 46.5702 40.1494 45.8066L24.1494 29.5566C22.5995 27.9825 22.6192 25.4493 24.1934 23.8994C25.7675 22.3495 28.3007 22.3692 29.8506 23.9434L39 33.2354V4C39 1.79086 40.7909 1.28851e-07 43 0Z" fill="#2B308B"/>
</svg>
